# xmcd
#
# Track frame offsets: 
#        183
#        15148
#        28658
#        43523
#        57653
#        73328
#        90025
#        104995
#        118308
#        132260
#        147128
#        161080
#        175113
#        188255
#        201380
#        214570
#        227985
#        242003
#        254115
#        266525
#        279098
#
# Disc length: 3891 seconds
#
# Revision: 0
# Processed by: cddbd v1.5.2PL0 Copyright (c) Steve Scherf et al.
# Submitted via: ExactAudioCopy v0.95b4
#
DISCID=310f3115
DTITLE=Sleepy John Estes - First Recordings
DYEAR=1900
DGENRE=Blues
TTITLE0=Brocken Hearted, Ragged And Dirty Too
TTITLE1=The Girl I Love, She Got Long Curly Hair
TTITLE2=Divin' Duck Blues
TTITLE3=Little Sarah
TTITLE4=Black Mattie Blues
TTITLE5=T-Bone Steak Blues
TTITLE6=Chickasaw Blues
TTITLE7=Devile In The Woodpile-1
TTITLE8=Milk Cow Blues
TTITLE9=Street Car Blues
TTITLE10=Expressman Blues-2
TTITLE11=Watcha Doin'-1
TTITLE12=Poor John Blues-1
TTITLE13=Stack O'Dollars-1
TTITLE14=My Black Gal Blues-1
TTITLE15=Sweet Mama-2
TTITLE16=Like I Want To Be
TTITLE17=Ticket Agent Blues
TTITLE18=New Minglewood Blues
TTITLE19=Selling The Jelly-1
TTITLE20=Bad Luck's My Buddy
EXTD=
EXTT0=
EXTT1=
EXTT2=
EXTT3=
EXTT4=
EXTT5=
EXTT6=
EXTT7=
EXTT8=
EXTT9=
EXTT10=
EXTT11=
EXTT12=
EXTT13=
EXTT14=
EXTT15=
EXTT16=
EXTT17=
EXTT18=
EXTT19=
EXTT20=
PLAYORDER=
